<svg width="8" height="8" viewBox="0 0 8 8" fill="none" xmlns="http://www.w3.org/2000/svg">
<g clip-path="url(#clip0_36_106)">
<path d="M0.74734 1.74738L0.747411 1.74738C0.814307 1.74739 0.880524 1.76081 0.942139 1.78687C1.00309 1.81264 1.05832 1.85026 1.10461 1.89753L4.00001 4.79292L6.89498 1.89795C6.98625 1.80399 7.11079 1.74957 7.24183 1.74648C7.34257 1.7441 7.44169 1.77221 7.52618 1.82714C7.61067 1.88207 7.67659 1.96125 7.7153 2.05429M0.74734 1.74738L7.7153 2.05429M0.74734 1.74738C0.647838 1.74741 0.550605 1.77712 0.468083 1.83271C0.38556 1.88831 0.321502 1.96726 0.284102 2.05947C0.246702 2.15167 0.237663 2.25294 0.25814 2.35031C0.278471 2.44699 0.326983 2.53547 0.397531 2.60458L3.64647 5.85353L3.64651 5.85356C3.74028 5.94729 3.86743 5.99994 4.00001 5.99994C4.13258 5.99994 4.25974 5.94729 4.3535 5.85356L4.35354 5.85353L7.60205 2.60501C7.67358 2.53553 7.72271 2.44622 7.7431 2.34856C7.7637 2.24991 7.75401 2.14734 7.7153 2.05429M0.74734 1.74738L7.7153 2.05429" fill="#FF9800" stroke="#FF9800" stroke-width="0.5"/>
</g>
<defs>
<clipPath id="clip0_36_106">
<rect width="8" height="8" fill="white"/>
</clipPath>
</defs>
</svg>
