<svg width="9" height="6" viewBox="0 0 9 6" fill="none" xmlns="http://www.w3.org/2000/svg">
<path d="M1.2499 0.751046L1.24997 0.751046C1.31687 0.751049 1.38309 0.764475 1.4447 0.79053C1.50566 0.816305 1.56088 0.853921 1.60718 0.90119L4.50257 3.79658L7.39754 0.901608C7.48882 0.807652 7.61336 0.753234 7.74439 0.750139C7.84514 0.747759 7.94425 0.775877 8.02874 0.830805C8.11323 0.885735 8.17915 0.964912 8.21786 1.05796M1.2499 0.751046L8.21786 1.05796M1.2499 0.751046C1.1504 0.751071 1.05317 0.780781 0.970646 0.836376C0.888124 0.891971 0.824065 0.970922 0.786665 1.06313C0.749266 1.15533 0.740226 1.2566 0.760703 1.35397C0.781035 1.45065 0.829547 1.53913 0.900095 1.60825L4.14903 4.85719L4.14907 4.85722C4.24284 4.95095 4.36999 5.0036 4.50257 5.0036C4.63515 5.0036 4.7623 4.95095 4.85607 4.85722L4.8561 4.85719L8.10462 1.60867C8.17614 1.53919 8.22528 1.44988 8.24567 1.35222C8.26627 1.25357 8.25657 1.151 8.21786 1.05796M1.2499 0.751046L8.21786 1.05796" fill="#828282" stroke="#828282" stroke-width="0.5"/>
</svg>
