<svg width="30" height="30" viewBox="0 0 30 30" fill="none" xmlns="http://www.w3.org/2000/svg">
<path d="M6.92534 13.8999C1.07534 14.3124 1.07534 22.8249 6.92534 23.2374H9.3254" stroke="#FF9800" stroke-width="1.5" stroke-miterlimit="10" stroke-linecap="round" stroke-linejoin="round"/>
<path d="M6.98754 13.8998C2.97504 2.73731 19.9 -1.72518 21.8375 9.99982C27.25 10.6873 29.4375 17.8998 25.3375 21.4873C24.0875 22.6248 22.475 23.2498 20.7875 23.2373H20.675" stroke="#FF9800" stroke-width="1.5" stroke-miterlimit="10" stroke-linecap="round" stroke-linejoin="round"/>
<path d="M21.25 20.6626C21.25 21.5876 21.05 22.4626 20.675 23.2376C20.575 23.4626 20.4625 23.6751 20.3375 23.8751C19.2625 25.6876 17.275 26.9126 15 26.9126C12.725 26.9126 10.7375 25.6876 9.66248 23.8751C9.53748 23.6751 9.42503 23.4626 9.32503 23.2376C8.95003 22.4626 8.75 21.5876 8.75 20.6626C8.75 17.2126 11.55 14.4126 15 14.4126C18.45 14.4126 21.25 17.2126 21.25 20.6626Z" stroke="#FF9800" stroke-width="1.5" stroke-miterlimit="10" stroke-linecap="round" stroke-linejoin="round"/>
<path d="M13.0505 20.6625L14.288 21.9L16.9505 19.4375" stroke="#FF9800" stroke-width="1.5" stroke-linecap="round" stroke-linejoin="round"/>
</svg>
