<svg width="30" height="30" viewBox="0 0 30 30" fill="none" xmlns="http://www.w3.org/2000/svg">
<path d="M22.5 23.5749H21.55C20.55 23.5749 19.6 23.9624 18.9 24.6624L16.7625 26.775C15.7875 27.7375 14.2 27.7375 13.225 26.775L11.0875 24.6624C10.3875 23.9624 9.425 23.5749 8.4375 23.5749H7.5C5.425 23.5749 3.75 21.9125 3.75 19.8625V6.22491C3.75 4.17491 5.425 2.51245 7.5 2.51245H22.5C24.575 2.51245 26.25 4.17491 26.25 6.22491V19.8625C26.25 21.9 24.575 23.5749 22.5 23.5749Z" stroke="#FF9800" stroke-width="1.5" stroke-miterlimit="10" stroke-linecap="round" stroke-linejoin="round"/>
<path d="M8.75 11.45C8.75 10.2875 9.7 9.3374 10.8625 9.3374C12.025 9.3374 12.975 10.2875 12.975 11.45C12.975 13.8 9.63749 14.05 8.89999 16.2875C8.74999 16.75 9.1375 17.2125 9.625 17.2125H12.975" stroke="#FF9800" stroke-width="1.5" stroke-linecap="round" stroke-linejoin="round"/>
<path d="M20.0499 17.2V10.0625C20.0499 9.73751 19.8374 9.44993 19.5249 9.36243C19.2124 9.27493 18.875 9.39993 18.7 9.67493C17.8 11.1249 16.825 12.775 15.975 14.225C15.8375 14.4625 15.8375 14.775 15.975 15.0125C16.1125 15.25 16.375 15.3999 16.6625 15.3999H21.25" stroke="#FF9800" stroke-width="1.5" stroke-linecap="round" stroke-linejoin="round"/>
</svg>
